<svg width="64" height="70" viewBox="0 0 64 70" fill="none" xmlns="http://www.w3.org/2000/svg">
<g clip-path="url(#clip0_154_390)">
<path d="M25.4462 68.1862C25.9898 68.1862 26.9244 68.01 27.6597 66.8319C27.2393 65.8975 26.94 64.0095 26.897 63.3224C26.6802 59.8063 28.035 56.4986 29.5185 56.4079C30.6049 56.3423 31.4746 57.371 31.5747 59.0371C31.8413 63.4183 30.3829 65.2477 29.6531 66.8243C29.7765 67.4362 30.8129 68.4775 31.7921 68.4775C32.1537 68.4775 32.5913 68.2964 32.7009 68.1498C32.6276 67.8976 32.5543 67.5706 32.5543 67.0979C32.5543 64.5591 34.1868 62.4192 35.6012 62.4192C36.7255 62.4192 37.3777 63.906 37.3777 64.8871C37.3777 66.0459 36.3985 66.991 34.9486 67.8979C35.2033 68.1498 35.6726 68.3333 36.0729 68.3333C38.1414 68.3333 39.2242 65.83 40.0261 63.5444C40.1711 63.1078 40.4255 62.4916 40.9321 62.4916C41.8036 62.4916 42.167 68.2222 43.614 68.2222C44.2318 68.2222 44.7393 66.9519 44.7393 65.9751C44.7393 65.2495 44.4858 65.1769 44.4858 64.1243C44.4858 62.9652 45.1027 61.9868 45.9378 61.9868C46.4453 61.9868 46.6282 62.4916 46.6282 63.1075C46.6282 65.4288 44.9585 69.7453 42.4949 69.7453C40.6423 69.7453 40.787 66.5543 40.1348 66.5543C39.4065 66.5543 38.3909 69.7823 34.8036 69.7823C34.2203 69.7823 33.606 69.4922 33.0997 68.9108C32.2294 69.4925 31.5021 69.7453 30.6678 69.7453C29.3276 69.7453 28.7471 68.3672 28.2033 68.3672C27.5492 68.3672 26.8261 69.7823 24.648 69.7823C22.9075 69.7823 22.6168 67.4628 22.0024 67.4628C21.457 67.4628 20.6234 69.7823 19.7174 69.7823C18.1919 69.7823 17.8682 65.7567 16.5246 65.7567C15.4727 65.7567 12.1498 69.8455 11.248 69.752C10.8847 69.7142 10.7326 69.4424 10.7708 69.0799C10.8215 68.5785 11.2532 67.2356 11.4291 66.5998C11.7223 65.4972 11.9916 64.2883 12.1418 63.9023C12.2911 63.5142 12.6942 63.2363 13.017 63.2666C13.18 63.2818 13.2292 63.5857 13.2793 63.8361C13.4622 64.7326 13.7184 65.6471 14.0066 65.6471C14.5157 65.6471 16.1985 62.4192 17.1769 62.4192C18.3757 62.4192 18.5195 67.4973 20.1498 67.4973C20.6952 67.4973 21.0955 66.846 21.4567 66.0459C21.494 64.7014 21.8558 62.7841 22.9438 62.7841C23.7066 62.7841 24.07 64.4868 23.5237 65.9751C23.5237 67.751 24.6834 68.1859 25.4462 68.1859M54.4582 63.8351C54.0087 65.699 52.6462 68.4414 50.6131 68.4414C50.1429 68.4414 49.3077 68.2591 49.3077 67.7874C49.3077 67.2789 52.5011 67.209 52.5011 64.7775C52.5011 63.8721 51.6675 62.6012 50.4339 62.6012C48.8021 62.6012 47.2099 64.3796 47.2099 66.8456C47.2099 69.0564 48.5837 69.7823 49.9609 69.7823C52.3564 69.7823 53.8059 67.8219 54.5672 66.191C54.9312 67.2789 55.1461 69.7823 56.0555 69.7823C56.417 69.7823 56.6723 69.6003 57.109 68.6225C58.193 66.191 59.2459 63.3994 60.6981 63.3994C61.2408 63.3994 60.9156 64.3796 62.221 64.3796C62.8363 64.3796 63.2696 63.8721 63.2696 63.2888C63.2696 62.4543 62.5092 61.8039 61.3495 61.8039C57.9411 61.8039 57.2171 66.9174 56.6726 66.9174C55.7648 66.9174 56.0558 62.8195 55.4014 62.8195C54.8206 62.8195 54.536 63.5115 54.4582 63.8351ZM30.4003 60.0157C30.3371 59.0029 30.0919 58.5454 29.5478 58.5818C28.8253 58.6257 28.4912 60.8985 28.639 63.2864C28.7331 64.8446 28.9652 65.0847 29.181 65.0697C29.5804 65.0468 30.5393 62.2619 30.4003 60.016M24.5024 57.8862C24.4514 57.3054 23.9955 56.9084 23.3786 56.9084C22.6901 56.9084 22.0421 57.6309 22.1111 58.5384C22.1551 59.1357 22.5081 59.6285 23.2 59.6285C23.9958 59.6285 24.5756 58.7216 24.5024 57.8862ZM35.7832 65.2841C35.7832 64.6688 35.4552 64.1613 35.0592 64.1613C34.7294 64.1613 33.9703 64.5219 33.9703 65.6835C33.9703 66.5931 34.2939 67.0246 34.4414 67.209C35.4915 66.8823 35.7832 66.0096 35.7832 65.2841ZM49.9609 64.0544C50.7237 64.0544 50.942 64.957 50.7609 65.5024C50.5777 66.0459 49.9264 66.6646 48.9105 66.846C48.6924 66.3006 48.5837 64.0544 49.9609 64.0544ZM8.20241 61.4793C8.09798 61.1495 7.7969 60.4084 7.71384 59.8615C7.53277 58.6499 8.16608 57.8517 8.74778 57.6688C9.40094 57.4868 9.65561 57.8138 9.90753 58.5766C10.2343 59.7363 10.2709 61.2585 10.161 63.4348C10.0181 66.409 8.53037 70 4.83189 69.9255C1.63938 69.8555 0.226494 67.7874 0.0799223 64.6324C0.0109116 63.1456 0.116565 61.6598 0.733386 59.5559C1.05951 58.4306 1.35112 58.0303 2.36491 57.8138C3.1625 57.6688 3.09074 58.5015 2.90966 59.4841C2.51178 61.6598 2.32796 62.7099 2.47453 65.1769C2.61713 67.7874 3.81657 68.8039 5.12197 68.8039C7.07992 68.8408 7.94958 67.209 8.31387 64.8498C8.60213 62.9652 8.38532 62.0583 8.20241 61.4793ZM50.9765 14.2974C51.2275 16.125 53.9965 18.5886 54.7477 18.5309C55.2487 18.4878 55.4411 16.1442 55.4411 14.2974C55.4411 13.2396 55.4991 12.4112 54.9406 12.2179C54.0545 14.0082 51.7283 14.3743 50.9765 14.2974ZM51.1301 13.4888C53.1296 13.4888 54.9596 11.8918 54.9596 10.4868C54.9596 9.83186 54.6509 9.29351 53.8621 9.19763C53.9965 9.37107 54.0545 9.50574 54.0545 9.81293C54.0545 10.8716 52.4407 12.046 50.6882 12.046C50.0522 12.046 49.8598 12.4879 49.8598 12.7193C49.8598 13.2586 50.3801 13.4888 51.1301 13.4888ZM50.7072 11.3144C50.4381 11.3144 50.0522 11.3144 49.84 10.8914C49.6665 10.5446 49.7242 9.98637 49.3972 9.73598C49.7242 9.83186 50.0711 9.83186 50.3414 9.83186C51.2086 9.83186 52.037 9.2355 52.6721 9.2355C53.0914 9.2355 53.2261 9.50574 53.2261 9.77415C53.2261 10.6224 51.5167 11.3144 50.7072 11.3144ZM7.66102 26.4014C8.31448 26.4014 8.17951 22.3982 9.23849 22.3982C9.48888 22.3982 9.56522 22.6486 9.56522 22.957C9.56522 23.8609 9.12276 25.1892 9.12276 25.9199C9.12276 26.286 9.21864 26.4014 9.39208 26.4014C9.85439 26.4014 10.6624 21.9939 11.4517 21.9939C11.7021 21.9939 11.8169 22.244 11.8169 22.495C11.8169 23.4184 10.6431 26.0738 10.6431 26.8244C10.6431 26.9392 10.6819 27.0357 10.7778 27.0357C11.2593 27.0357 12.2215 24.958 12.5287 23.9189C12.7022 23.3796 12.9333 23.0905 13.1449 23.0905C13.3373 23.0905 13.5107 23.3027 13.5107 23.7454C13.5107 24.7846 12.5476 27.2283 11.7021 28.8651C11.048 30.1344 10.0278 31.9623 10.0278 32.9822C10.0278 33.5016 10.1228 34.0399 10.8746 34.6952C9.64217 34.6183 9.14169 34.5029 8.68091 33.5404C6.62219 37.6392 12.4716 37.2352 10.4697 40.872C10.1039 40.2185 7.21764 39.5446 7.21764 35.7341C7.21764 32.4435 10.1039 30.5195 10.1039 29.1524C10.1039 28.8843 10.0092 28.6528 9.7579 28.4406C9.12276 27.9014 9.10291 27.4604 8.60426 27.4604C8.23753 27.4604 7.79476 28.3063 8.25616 29.0568C8.41097 29.3072 8.54564 29.4605 8.54564 29.692C8.54564 30.2303 7.69796 31.6731 7.10282 31.6731C6.50646 31.6731 6.04476 30.1931 6.04476 27.8055C6.04476 25.6887 6.52539 23.5531 7.12176 23.5531C7.2952 23.5531 7.35291 23.6688 7.35291 23.8224C7.35291 24.0728 7.27627 24.573 7.27627 25.4188C7.27627 26.3239 7.48757 26.4014 7.66102 26.4014Z" fill="#0F0E9A"/>
<path d="M12.5676 32.0393C13.3768 32.0393 14.0492 31.442 14.0492 30.1155V28.1518C14.0492 27.4018 14.1072 26.5554 14.6083 25.9581C14.5506 26.2085 14.5506 26.4784 14.5506 26.7279C14.5506 28.3829 15.474 29.5189 15.474 31.1159C15.474 31.7113 15.3006 32.0393 14.8398 32.0393C14.3961 32.0393 14.4349 31.6344 14.3384 31.6344C14.2614 31.6344 14.146 31.8848 14.146 32.1547C14.146 32.5587 14.4349 33.1938 15.2426 33.1938C15.9363 33.1938 16.4939 32.5587 16.4939 31.8466C16.4939 30.1158 15.147 28.1906 15.147 26.3441C15.147 25.5346 15.3583 24.9959 15.5317 24.5724C15.5317 28.4028 18.7838 31.1925 18.7838 32.7889C18.7838 33.1551 18.5151 33.4439 18.1111 33.4439C17.6674 33.4439 17.4561 33.097 17.4561 32.8271C17.4561 32.6924 17.4362 32.6546 17.3791 32.6546C17.2643 32.6546 16.9174 33.0393 16.9174 33.5407C16.9174 34.175 17.4362 34.9454 18.3993 34.9454C19.4953 34.9454 20.0922 34.0204 20.0922 33.1938C20.0922 31.1736 16.147 28.1139 16.147 24.8423C16.147 24.2841 16.2429 23.3797 16.6475 22.6868C14.1069 24.322 13.3191 26.4977 13.3191 28.4031C13.3191 30.0581 13.2614 30.8838 12.415 30.8838C11.9713 30.8838 11.8565 30.4807 11.7023 30.4807C11.5862 30.4807 11.5288 30.8267 11.5288 30.9226C11.5288 31.6344 12.0491 32.0393 12.5676 32.0393ZM45.9175 12.8156C46.7649 12.8156 47.4009 12.4308 47.4009 12.1993C47.4009 12.1233 47.2852 12.065 47.0342 12.065C46.7838 12.065 46.2833 12.0457 45.3394 11.8922C44.5303 11.7566 43.9137 11.4494 43.6826 11.4494C43.6059 11.4494 43.5668 11.4876 43.5668 11.5453C43.5668 12.0457 44.4921 12.8156 45.9175 12.8156ZM41.7228 10.3718C41.9671 10.2078 43.0511 10.4674 44.4539 9.7745C44.6064 9.68798 44.7784 9.64174 44.9538 9.64014C45.6286 9.64014 45.4543 10.4096 46.072 10.4096C46.5526 10.4096 47.1698 10.005 47.5356 10.005C48.1096 10.005 48.9372 11.8146 48.9372 12.661C48.9372 13.6431 47.4586 14.2391 45.7053 14.2391C43.1485 14.2391 41.6065 12.0079 41.6065 10.5642C41.6065 10.4484 41.6651 10.4096 41.7228 10.3718ZM12.9722 39.2937C12.3377 39.4482 11.3172 40.4473 11.3172 42.0275C11.3172 43.9128 13.338 46.8192 16.667 46.8192C19.4757 46.8192 20.1689 44.8759 20.1689 43.5659C20.1689 40.6598 18.3801 38.6197 16.0518 38.6197C14.7815 38.6197 13.6462 39.545 13.6462 40.9099C13.6462 42.1811 14.608 44.0856 16.8982 44.0856C17.9761 44.0856 18.6103 43.3158 18.6103 42.4312C18.6103 41.5649 17.8216 40.3725 16.667 40.3725C16.3202 40.3725 16.0707 40.6018 16.0707 40.9679C16.0707 41.4293 16.7058 41.8919 17.4946 41.8919C17.6869 41.8919 17.8405 41.8541 17.9184 41.8153C17.9563 41.873 17.9761 41.9695 17.9761 42.0464C17.9761 42.4892 17.5517 42.7591 16.8982 42.7591C15.9171 42.7591 14.9732 42.0275 14.9732 40.8711C14.9732 40.1798 15.5702 39.6793 16.4359 39.6793C18.1489 39.6793 19.1688 41.1991 19.1688 42.7204C19.1688 44.0853 18.4189 44.8762 16.8793 44.8762C13.7997 44.8762 12.2989 42.1042 12.9722 39.2937ZM33.4467 46.7227C33.4473 46.9267 33.5286 47.1221 33.6728 47.2664C33.8171 47.4106 34.0125 47.4919 34.2165 47.4925C34.6404 47.4925 34.986 47.1465 34.986 46.723C34.986 46.2995 34.6404 45.9523 34.2165 45.9523C34.0125 45.9531 33.817 46.0346 33.6729 46.179C33.5287 46.3234 33.4475 46.5189 33.447 46.723M34.9387 50.569C35.8612 50.569 35.8138 50.492 36.1027 50.492C36.391 50.492 36.4111 50.6654 36.4111 50.7812C36.4111 51.2047 35.467 51.7253 33.7936 51.7253C32.8116 51.7253 32.2155 51.2047 32.0421 50.6276C31.0808 51.2429 29.6181 51.8011 28.1744 51.8011C24.2301 51.8011 23.2292 50.0874 21.9977 49.5307C21.0535 49.1072 19.6107 49.9356 17.5908 47.6833C17.8601 47.7413 18.2259 47.7609 18.5151 47.7609C20.284 47.7609 21.2269 46.8955 21.2269 45.5089C21.2269 45.3354 21.208 45.1455 21.1882 44.973C21.7274 45.1843 22.9598 46.1068 23.2481 47.741C23.2869 47.9343 24.0756 48.1069 24.5752 48.1069C25.269 48.1069 26.1542 47.818 26.2882 46.6839C28.5979 46.4915 30.1571 45.1257 30.4844 43.3922C31.311 43.6621 32.2534 44.413 32.4845 44.7986C32.8116 44.6829 33.1966 44.6252 33.6391 44.6252C34.2544 44.6252 34.9482 44.7409 35.7751 44.9916C35.8138 44.7409 35.8526 44.4328 36.2374 44.4328C36.8145 44.4328 36.6603 45.068 36.8527 45.4319C36.9495 45.6243 37.4316 45.74 37.4316 46.1251C37.4316 46.4915 37.122 46.6262 36.9305 46.6262C36.8527 46.6262 36.7571 46.6073 36.6985 46.5883C36.3143 46.7227 36.2954 49.4929 34.6782 49.4929C33.4855 49.4929 32.389 48.5118 31.9074 47.2812C31.7718 46.9154 31.4845 46.6839 31.2142 46.6839C30.9074 46.6839 30.7339 46.7419 30.3687 47.1465C29.3299 48.2803 27.597 49.2617 25.4616 49.2617C24.8063 49.2617 24.2878 49.2037 24.1523 49.2037C24.0756 49.2037 24.0756 49.2226 24.0756 49.2419C24.0756 49.3771 24.7297 49.8975 26.1542 49.8975C29.5406 49.8975 30.3687 47.9914 30.9074 47.9914C30.984 47.9914 31.2146 47.9914 31.3489 48.2995C32.1376 50.1451 33.8611 50.569 34.9387 50.569ZM46.6106 38.3119C46.207 38.3119 43.9711 41.295 42.5317 41.295C42.1848 41.295 41.8965 40.64 41.8965 40.1419C41.8965 39.872 42.0685 39.6796 42.6862 39.545C45.9947 38.7932 45.2628 36.3106 48.0898 36.3106C49.6483 36.3106 51.3818 37.3696 51.3818 39.7563C51.3818 42.2968 47.7664 45.4515 47.2269 45.4515C46.7835 45.4515 46.3028 44.8172 46.3028 44.3937C46.3028 44.26 46.3609 44.0853 46.7456 43.932C48.5903 43.1992 49.6483 41.5072 49.6483 40.64C49.6483 40.4476 49.5525 40.2577 49.3015 40.2577C48.9753 40.2577 47.5737 43.4505 46.0137 43.4505C44.9352 43.4505 43.8374 42.4703 43.8374 42.0077C43.8374 41.2382 46.9569 39.814 46.9569 38.7355C46.9569 38.3309 46.7652 38.3119 46.611 38.3119M48.6862 37.1192C48.4168 37.1192 48.1286 37.3314 48.1286 37.8521C48.1286 38.4274 48.5713 38.7932 48.8217 38.9089C48.9561 38.9859 49.1686 39.0634 49.3781 39.0634C49.9372 39.0634 50.38 38.9089 50.38 38.4466C50.38 37.8518 49.5137 37.1192 48.6862 37.1192ZM12.7411 14.8355C12.7417 15.0397 12.8231 15.2354 12.9675 15.3798C13.1119 15.5242 13.3076 15.6056 13.5118 15.6062C13.7157 15.6052 13.911 15.5237 14.055 15.3793C14.1989 15.2349 14.28 15.0394 14.2804 14.8355C14.2797 14.6318 14.1986 14.4365 14.0546 14.2924C13.9106 14.1483 13.7155 14.0669 13.5118 14.066C13.3077 14.0665 13.1122 14.1477 12.9678 14.2918C12.8234 14.436 12.7419 14.6314 12.7411 14.8355ZM11.741 13.1038C11.7417 13.3076 11.8229 13.5028 11.9669 13.647C12.1109 13.7912 12.3061 13.8725 12.5099 13.8733C12.9335 13.8733 13.2803 13.5264 13.2803 13.1038C13.2803 12.6812 12.9335 12.334 12.5099 12.334C12.3061 12.3348 12.1109 12.4162 11.9669 12.5603C11.8229 12.7045 11.7417 12.9 11.741 13.1038ZM11.0479 18.3761C10.6045 18.4918 9.68201 19.0311 9.68201 19.9924C9.68201 20.6855 10.2194 21.128 10.8943 21.128C11.2406 21.128 11.4906 21.051 11.6442 20.9356C11.1059 20.4162 10.9135 19.8388 10.9135 19.2622C10.9135 18.8576 10.9715 18.6073 11.0479 18.3761ZM6.33408 18.6463C6.31484 18.7428 6.31484 18.8387 6.31484 18.9346C6.31484 19.8388 6.79547 20.3392 7.43062 20.3392C7.91064 20.3392 8.46974 20.0501 8.96931 19.4152C8.74029 19.4538 8.5084 19.4728 8.27615 19.472C7.56528 19.472 6.79547 19.2815 6.33408 18.6463ZM5.66016 20.3582C5.66016 21.8208 6.10292 22.514 6.89135 22.514C7.50756 22.514 8.33508 22.0712 9.31528 21.2245C8.56532 21.3982 7.9882 21.5127 7.46878 21.5127C6.77562 21.5127 6.2382 21.2434 5.66016 20.3582ZM10.6442 12.661C10.7401 12.3529 10.8167 11.9691 10.8167 11.5453C10.8167 10.6219 10.3932 9.21631 9.08504 9.21631C8.33508 9.21631 7.79491 9.81267 7.79491 10.5254C7.79491 12.0461 9.31558 12.661 10.6442 12.661ZM9.00748 17.5107C8.37295 17.5107 7.68009 16.722 7.68009 16.0099C7.68009 15.6251 7.96835 15.1436 8.18057 15.1436C8.25752 15.1436 8.2963 15.2016 8.31493 15.3369C8.43096 16.2792 9.04595 16.8185 9.6243 17.0869C9.68232 17.1257 9.71988 17.1449 9.71988 17.1837C9.71988 17.318 9.35406 17.5104 9.00717 17.5104M10.7789 15.1625C10.9117 15.3439 11.2793 15.5674 11.2793 15.7021C11.2793 15.9711 11.1248 16.318 10.8167 16.318C10.1428 16.318 9.60445 15.2981 9.60445 14.7201C9.60445 14.3549 9.81667 14.317 10.104 14.317C10.2396 14.317 10.2964 14.3359 10.3932 14.3939C10.5666 14.4895 10.5666 14.8746 10.7789 15.1625ZM6.25713 17.5495C6.22079 17.609 6.19911 17.6839 6.19911 17.7617C6.19911 17.9342 6.39149 18.1266 6.56432 18.1266C6.71883 18.1266 6.81471 18.0888 6.89135 18.0888C7.35305 18.0888 7.87247 18.4149 8.62334 18.4149C9.06519 18.4149 9.58521 18.2805 10.2396 17.9541C11.6244 17.2603 12.1646 15.5485 12.1646 15.2593C12.1646 14.8935 11.8705 14.9408 11.6244 14.6043C11.3795 14.2697 11.4735 13.9719 11.3172 13.8156C11.2274 13.7258 10.9523 13.7197 10.6045 13.6812C10.464 13.6675 10.3228 13.6611 10.1816 13.662C9.54643 13.662 8.79403 13.7396 7.94942 14.2782C6.27973 15.343 6.52554 17.1067 6.25713 17.5495ZM12.6452 16.78C12.2217 17.2793 11.7789 18.1266 11.7789 18.9923C11.7789 20.0311 12.415 20.8968 13.3961 20.8968C14.3384 20.8968 14.7809 20.0891 14.7809 19.2622C14.7809 17.973 13.6074 17.0683 12.6452 16.78ZM8.52746 13.0849C8.52746 13.0849 7.96835 13.5075 7.2761 13.5075C6.4495 13.5075 5.79451 12.8922 5.79451 12.0268C5.79451 11.4295 6.10292 10.8145 6.81441 10.5061C6.79547 10.6222 6.79547 10.7177 6.79547 10.8335C6.79547 11.93 7.41077 12.7578 8.52746 13.0849ZM42.4544 19.4726C42.4544 19.916 42.8209 20.2818 43.2584 20.2818C43.4727 20.2807 43.6779 20.1951 43.8295 20.0436C43.9811 19.8921 44.0667 19.6869 44.0679 19.4726C44.0679 19.0308 43.7021 18.6656 43.2587 18.6656C42.8212 18.6656 42.4544 19.0311 42.4544 19.4726ZM42.5121 21.8972C42.5121 22.1368 42.6073 22.3665 42.7767 22.536C42.9462 22.7054 43.1759 22.8006 43.4155 22.8006C43.6551 22.8006 43.8849 22.7054 44.0543 22.536C44.2238 22.3665 44.3189 22.1368 44.3189 21.8972C44.3146 21.6604 44.2175 21.4349 44.0486 21.269C43.8796 21.1032 43.6523 21.0102 43.4155 21.0102C43.1788 21.0102 42.9515 21.1032 42.7825 21.269C42.6136 21.4349 42.5165 21.6604 42.5121 21.8972ZM39.7395 23.5333C39.7402 23.8854 39.8805 24.223 40.1296 24.4719C40.3787 24.7209 40.7162 24.861 41.0684 24.8616C41.7994 24.8616 42.3973 24.2643 42.3973 23.5333C42.3973 22.8022 41.7994 22.2053 41.0684 22.2053C40.7162 22.2058 40.3787 22.3459 40.1296 22.5949C39.8805 22.8439 39.7402 23.1811 39.7395 23.5333ZM40.4516 20.8205C40.4522 21.0245 40.5335 21.2201 40.6779 21.3643C40.8223 21.5085 41.0179 21.5897 41.222 21.59C41.426 21.5895 41.6215 21.5083 41.7657 21.3641C41.91 21.2199 41.9913 21.0244 41.9918 20.8205C41.9913 20.6165 41.91 20.4211 41.7658 20.2769C41.6217 20.1326 41.4263 20.0513 41.2223 20.0507C41.0183 20.0512 40.8227 20.1323 40.6783 20.2765C40.5339 20.4207 40.4524 20.6164 40.4516 20.8205ZM37.9318 22.3598C37.9323 22.5631 38.0131 22.7581 38.1567 22.9021C38.3002 23.0461 38.4949 23.1275 38.6982 23.1287C39.1227 23.1287 39.4696 22.7836 39.4696 22.3598C39.4696 21.9359 39.1227 21.5903 38.6979 21.5903C38.4946 21.5917 38.3 21.6733 38.1565 21.8174C38.013 21.9615 37.9323 22.1564 37.9318 22.3598ZM39.9123 17.8579C39.9123 18.5309 40.4705 19.0885 41.1445 19.0885C41.8193 19.0885 42.3775 18.5309 42.3775 17.8579C42.3775 17.1831 41.8193 16.6258 41.1445 16.6258C40.4705 16.6258 39.9123 17.1831 39.9123 17.8579ZM41.3567 15.4902C41.3567 15.5862 41.3756 15.6813 41.4124 15.77C41.4492 15.8587 41.5031 15.9393 41.571 16.0072C41.639 16.0751 41.7196 16.1289 41.8084 16.1655C41.8972 16.2022 41.9923 16.221 42.0883 16.2209C42.1861 16.2237 42.2835 16.2069 42.3747 16.1714C42.4659 16.1359 42.5491 16.0825 42.6193 16.0143C42.6894 15.9461 42.7453 15.8646 42.7834 15.7744C42.8215 15.6843 42.8411 15.5874 42.8411 15.4896C42.8411 15.3917 42.8215 15.2948 42.7834 15.2047C42.7453 15.1146 42.6894 15.033 42.6193 14.9648C42.5491 14.8966 42.4659 14.8432 42.3747 14.8077C42.2835 14.7722 42.1861 14.7554 42.0883 14.7582C41.9922 14.7582 41.897 14.7772 41.8083 14.814C41.7195 14.8507 41.6388 14.9047 41.5709 14.9726C41.5029 15.0406 41.449 15.1213 41.4123 15.2101C41.3755 15.2989 41.3566 15.3941 41.3567 15.4902ZM37.875 17.3376C37.8745 17.5311 37.9508 17.7168 38.0872 17.8541C38.2236 17.9913 38.4089 18.0688 38.6024 18.0695C38.7963 18.0695 38.9823 17.9925 39.1195 17.8553C39.2566 17.7182 39.3337 17.5322 39.3337 17.3382C39.3337 17.1442 39.2566 16.9582 39.1195 16.8211C38.9823 16.6839 38.7963 16.6069 38.6024 16.6069C38.4091 16.6075 38.2239 16.6848 38.0876 16.8218C37.9512 16.9588 37.8748 17.1443 37.875 17.3376ZM37.7782 19.8385C37.7771 19.9926 37.8066 20.1455 37.865 20.2882C37.9233 20.4309 38.0094 20.5606 38.1182 20.6698C38.227 20.779 38.3564 20.8656 38.4989 20.9244C38.6414 20.9833 38.7942 21.0134 38.9483 21.0129C39.1029 21.0139 39.2562 20.9843 39.3993 20.9257C39.5424 20.8671 39.6724 20.7807 39.7818 20.6714C39.8913 20.5622 39.9779 20.4323 40.0367 20.2893C40.0956 20.1463 40.1254 19.9931 40.1246 19.8385C40.1246 19.185 39.6033 18.6659 38.9483 18.6659C38.7943 18.6653 38.6417 18.6952 38.4993 18.7539C38.3569 18.8127 38.2275 18.8991 38.1187 19.0081C38.0099 19.1172 37.9238 19.2467 37.8653 19.3892C37.8069 19.5317 37.7773 19.6844 37.7782 19.8385ZM35.3524 21.0706C35.3524 21.6678 35.8523 22.1665 36.4493 22.1665C37.0456 22.1665 37.547 21.6678 37.547 21.0706C37.547 20.4742 37.0456 19.9737 36.4493 19.9737C35.8523 19.9737 35.3524 20.4745 35.3524 21.0706ZM36.0065 18.3575C36.0072 18.5613 36.0885 18.7565 36.2325 18.9007C36.3765 19.0449 36.5716 19.1263 36.7754 19.1273C37.1999 19.1273 37.547 18.7804 37.547 18.3578C37.547 17.9352 37.2002 17.588 36.7754 17.588C36.5717 17.5889 36.3766 17.6703 36.2326 17.8145C36.0886 17.9586 36.0073 18.1537 36.0065 18.3575ZM42.7625 24.2841C42.7625 23.8994 43.1094 23.572 43.4899 23.572C43.9143 23.572 44.2414 23.8991 44.2414 24.2841C44.2414 24.7269 43.9146 25.0347 43.4899 25.0347C43.1094 25.0347 42.7625 24.7269 42.7625 24.2841ZM43.259 46.4146C43.3555 46.4146 43.4713 46.4714 43.4713 46.8192C43.4713 47.2421 43.2789 47.7994 42.5894 48.2421C42.1079 48.5692 41.4529 48.8394 40.4898 48.8565C40.6434 48.3957 40.7591 47.9142 40.7591 47.4543C40.7591 47.2998 40.7408 47.1844 40.7212 47.0115H40.9722C42.4929 47.0115 43.1485 46.4146 43.259 46.4146ZM43.4132 44.5091C43.5696 44.3772 43.6056 44.1632 43.6056 43.951V43.5082C43.6056 42.95 42.7628 42.6239 41.6065 42.6239C40.2006 42.6239 39.45 43.2572 39.45 43.5271V44.4136C39.45 44.7794 40.2974 45.1452 41.3371 45.1452C42.1656 45.1452 42.917 44.9339 43.4136 44.5091M44.4142 44.7214C43.9137 45.1073 42.7439 45.9709 40.7979 45.9709C39.7581 45.9709 39.2955 45.6442 39.141 45.6442C38.9486 45.6442 38.7364 45.8365 38.5251 46.0875C38.0677 46.6268 37.4704 47.6278 37.4704 48.7237C37.4704 49.4932 38.0677 50.2605 39.1798 50.2605C42.7818 50.2605 45.4741 48.0101 45.4741 46.1834C45.4741 45.1452 44.8588 44.7214 44.4145 44.7214M45.0887 28.5375C45.0887 29.0181 45.2433 29.5763 45.7248 29.5763C46.1285 29.5763 46.4754 28.9613 46.4754 28.2874C46.4754 27.5176 46.341 26.9203 46.341 26.6122C46.341 26.4784 46.3987 26.4207 46.4754 26.4207C46.7645 26.4397 47.0348 27.2284 47.3426 27.2284C47.6898 27.2284 48.2055 26.5932 48.4171 26.5932C48.4752 26.5932 48.4938 26.6702 48.4938 26.6891C48.4938 26.9783 48.051 27.6144 48.051 27.8635C48.051 28.0748 49.1677 28.1139 49.1677 28.3063C49.1677 28.5952 47.9976 28.5952 47.4394 28.8456C46.9001 29.0758 46.5722 29.365 46.5722 29.7497C46.5722 30.1345 46.9569 30.2108 47.4974 30.2108C48.7829 30.2108 49.6874 29.5186 49.9754 29.5186C50.0334 29.5186 50.0713 29.5573 50.0713 29.6154C50.0713 29.8077 49.4172 30.442 49.4172 30.7311C49.4172 31.0579 50.6114 31.442 50.5925 31.6344C50.5736 31.6924 50.4957 31.7113 50.3613 31.7113C50.1488 31.7113 49.8218 31.6542 49.5708 31.6542C49.4172 31.6542 49.2825 31.6732 49.2239 31.7501C49.0911 31.9046 49.2627 32.9236 48.9952 32.9236C48.7442 32.9236 48.0892 30.6542 46.611 30.6542C46.3987 30.6542 46.2451 30.8267 46.2451 31.1159C46.2451 31.8848 46.9957 32.77 47.7087 33.1938C48.0315 33.4052 48.5716 33.6174 48.5716 33.7331C48.5716 33.9627 47.3429 33.752 47.3429 34.1362C47.3429 34.4831 47.4971 35.0034 47.4971 35.3106C47.4971 35.4071 47.4772 35.5219 47.3618 35.5219C47.1313 35.5219 46.5722 34.4638 46.3022 34.4638C46.0717 34.4638 45.5712 35.0984 45.3581 35.0984C45.301 35.0984 45.2631 35.0403 45.2631 34.9845C45.2631 34.5408 45.9749 33.5407 45.9749 32.5587C45.9749 32.097 45.9172 31.096 45.3581 31.096C44.8964 31.096 44.376 31.8268 44.1449 32.5587C44.0102 32.9816 44.1067 34.6174 43.7986 34.6174C43.5097 34.6174 43.5864 33.5209 43.2007 33.5209C42.9167 33.5209 42.3008 34.0403 42.0883 34.0403C42.0504 34.0403 42.0117 34.0204 42.0117 33.9823C42.0117 33.752 42.5699 33.0015 42.5699 32.847C42.5699 32.5587 41.299 32.5208 41.299 32.2894C41.299 32.155 41.7994 32.0582 42.2618 31.9813C43.2404 31.8078 44.6851 31.0957 44.6851 30.0966C44.6851 28.9802 43.6053 28.4987 42.8978 28.0361C42.5314 27.8058 42.1274 27.6141 42.1274 27.4595C42.1274 27.305 42.5897 27.3053 42.7824 27.3053C43.0703 27.3053 43.3562 27.2861 43.3562 27.0559C43.3562 26.8818 43.3165 26.5365 43.3165 26.2671C43.3165 26.0738 43.3363 25.9193 43.4142 25.9193C43.7021 25.9193 44.1067 26.8626 44.2991 26.8626C44.6075 26.8626 45.031 26.0931 45.3208 26.0931C45.4158 26.0931 45.4546 26.1514 45.4546 26.3242C45.4546 27.0357 45.0887 27.8437 45.0887 28.5375ZM35.9097 22.899C36.1222 24.5345 38.3175 23.707 38.3175 25.6891C38.3175 25.978 38.2408 26.4018 38.2408 26.7658C38.2408 27.1902 38.2787 27.5563 38.6024 27.5563C38.9291 27.5563 39.007 27.3252 39.007 27.0171C39.007 26.7081 38.9294 26.3239 38.9294 26.1126C38.9294 25.4387 39.4109 25.2851 39.6998 25.2851C40.4327 25.2851 40.9909 26.036 42.0883 26.036C41.8382 27.2672 39.2952 26.9392 39.2952 28.2874C39.2952 28.9613 39.9701 29.114 40.4128 29.114C40.8174 29.114 40.953 29.056 40.953 28.7109C40.953 28.5176 40.9133 28.3063 40.9133 28.1716C40.913 28.1512 40.9169 28.131 40.9246 28.1121C40.9323 28.0932 40.9438 28.076 40.9582 28.0616C40.9727 28.0472 40.9899 28.0358 41.0088 28.0282C41.0277 28.0206 41.048 28.0168 41.0684 28.0171C41.4923 28.0171 43.5675 29.5955 43.5675 30.0768C43.5675 30.5186 41.3756 30.9614 40.7405 30.9614C40.5481 30.9614 40.5093 30.827 40.5093 30.7501C40.5093 30.6154 40.8363 30.2108 40.8363 29.9803C40.8363 29.8077 40.5481 29.692 39.7768 29.692C39.4109 29.692 39.1416 29.7299 39.1416 30.02C39.1416 30.5385 39.989 31.1736 39.989 31.6542C39.989 32.039 39.7578 32.2704 39.1416 32.2704C38.6213 32.2704 37.8359 31.8658 37.8359 31.1925C37.8359 30.6542 38.3907 30.1158 38.3907 29.7888C38.3907 29.692 38.3175 29.5375 38.0863 29.5375C37.3736 29.5375 37.1809 31.4231 34.6587 31.6344C35.0636 31.2695 35.4095 30.8655 35.4095 30.0389C35.4095 29.6343 35.3137 29.306 35.3137 28.8645C35.3137 28.2874 35.583 27.9982 35.9677 27.9982C36.6798 27.9982 37.0258 28.9982 37.489 28.9982C37.7403 28.9982 38.0094 28.7686 38.0094 28.4217C38.0094 26.9591 35.1979 27.1707 35.1979 25.1117C35.1979 24.5535 35.3894 23.8612 35.9097 22.899Z" fill="#0F0E9A"/>
<path d="M39.5646 35.4067C39.5646 35.6757 39.757 35.8882 40.0269 35.8882C40.3353 35.8882 40.5283 35.618 40.5283 35.3099C40.5283 34.9068 40.1619 34.348 39.8147 34.348C39.6602 34.348 39.7191 34.5792 39.6794 34.8292C39.6602 35.021 39.5646 35.2522 39.5646 35.4064M38.5636 32.8475C40.5851 33.2322 41.6828 34.7526 41.6828 36.1765C41.6828 37.1582 41.0669 38.0608 39.9881 38.0608C39.0061 38.0608 38.2977 37.3888 38.2977 36.3102C38.2977 35.5023 38.9285 34.6558 38.9285 33.8283C38.9285 33.5016 38.8326 33.1745 38.5636 32.8475ZM36.006 36.1194C36.1974 36.3102 36.2564 36.5035 36.2564 36.6959C36.2564 36.9848 36.1214 37.2929 36.1214 37.6199C36.1214 38.081 36.4677 38.4856 36.9672 38.4856C37.5074 38.4856 37.8741 38.0611 37.8741 37.5631C37.8741 36.8312 37.1208 36.1194 36.006 36.1194ZM42.3766 34.8879C42.5113 35.0977 42.569 35.3099 42.569 35.5023C42.569 36.0418 42.2032 36.5414 42.2032 37.1005C42.2032 37.7356 42.6847 38.2541 43.413 38.2541C44.2027 38.2541 44.7419 37.6199 44.7419 36.8693C44.7419 35.8494 43.8179 34.9838 42.3766 34.8879ZM36.4677 33.8665C37.3538 33.9819 37.566 34.29 37.566 34.5413C37.566 34.9639 37.1804 35.0977 36.8136 35.0977C36.5443 35.0977 36.2365 35.0409 35.9092 35.0409C35.4856 35.0409 35.0627 35.1364 34.7158 35.5413C34.9662 35.5801 35.332 35.7526 35.332 36.1383C35.332 37.2541 32.2333 36.3301 32.2333 39.198C32.2333 40.7177 33.8114 42.3737 36.1974 42.3737C37.4305 42.3737 38.2201 41.9691 38.2201 41.5065C38.2201 41.1416 37.566 41.3911 37.566 41.083C37.566 40.9483 37.7963 40.6973 37.7963 40.4857C37.7963 40.3916 37.7196 40.2182 37.566 40.2182C37.2182 40.2182 36.5642 40.7749 35.2352 40.7749C34.1964 40.7749 33.1762 40.1794 33.1762 39.3708C33.1762 39.1983 33.2532 39.1009 33.3686 39.1009C33.484 39.1009 33.6379 39.1784 33.7726 39.1784C33.8892 39.1784 33.9082 39.1009 33.9082 38.8893C33.9082 38.6777 33.9082 38.0807 34.2731 38.0807C34.6389 38.0807 35.332 39.4285 37.9896 39.4285C38.8717 39.4285 40.5851 39.2551 41.2215 38.678C41.2016 40.7947 39.5457 43.5844 36.0826 43.5844C32.4843 43.5844 30.559 40.6973 30.559 38.0422C30.559 35.0977 32.964 32.4243 36.2561 32.4243C37.1019 32.4243 37.8155 32.7116 37.8155 33.0777C37.8155 33.5788 36.5642 33.271 36.4677 33.8665ZM24.017 11.8918C25.2873 11.8918 25.8635 12.9886 25.8635 14.2201C25.8635 14.7584 25.7109 15.5481 25.4605 15.5481C25.2101 15.5481 25.2485 15.1053 25.2104 14.7007C25.1716 14.1819 25.076 14.0665 24.9023 14.0665C24.5746 14.0665 24.3639 14.8354 24.3639 15.5481C24.3639 15.99 24.4409 16.491 24.7868 16.491C24.9792 16.491 25.1527 16.3945 25.2675 16.2788C25.1905 17.1644 24.5355 17.9348 23.6124 17.9348C21.9192 17.9348 21.2841 15.9518 21.0917 14.7972C20.0718 15.8751 19.1295 16.6645 17.4357 16.6645C15.8582 16.6645 15.1455 15.5102 15.1455 14.4134C15.1455 14.0854 15.2609 13.239 15.6658 13.239C16.1465 13.239 15.7239 14.8162 16.6659 14.8162C16.897 14.8162 17.32 14.6238 17.5514 13.9896C17.6858 13.6039 17.7636 13.2008 17.7636 12.8539C17.7636 12.3336 17.6476 12.0075 17.2638 12.0075C16.9358 12.0075 16.5312 12.257 16.3966 12.3916C16.8592 11.0056 17.9749 10.2938 19.2055 10.2938C20.7268 10.2938 21.5345 11.6417 21.5345 13.1422C21.5345 13.3535 21.5146 13.585 21.4765 13.7963C22.1309 12.7184 23.0359 11.8918 24.017 11.8918ZM22.5345 14.1621C22.5345 13.8354 22.4579 13.7584 22.3809 13.7584C22.1886 13.7584 21.9773 13.9896 21.6692 14.509C21.7079 15.2021 21.8237 15.5099 22.016 15.5099C22.2267 15.5099 22.5345 14.8351 22.5345 14.1621ZM19.8984 14.9508C20.1097 14.9508 20.3799 14.7197 20.8804 14.1621C20.9192 13.9117 20.9192 13.6805 20.9192 13.3926C20.9192 13.0078 20.7647 12.584 20.5344 12.584C19.9561 12.584 19.6678 14.1242 19.6678 14.5291C19.6678 14.7584 19.7827 14.9508 19.8984 14.9508ZM23.0359 16.6645C23.5166 16.6645 24.0549 14.8162 24.0549 13.6616C24.0549 13.4112 24.017 13.1425 23.9013 13.1425C23.4967 13.1425 22.8234 15.0476 22.8234 16.0864C22.8234 16.491 22.9202 16.6645 23.0359 16.6645ZM18.3215 15.6058C18.9756 15.6058 19.7246 12.0652 19.7246 11.4682C19.7246 11.3137 19.6675 11.198 19.5332 11.198C18.9368 11.198 18.1093 14.5661 18.1093 15.3166C18.1093 15.4522 18.1481 15.6058 18.3215 15.6058Z" fill="#0F0E9A"/>
<path d="M20.4181 17.0677C19.5906 17.0677 19.5527 18.0695 19.5527 20.0889C18.9374 18.7615 17.9172 17.3376 16.7239 17.3376C15.9162 17.3376 15.6081 17.8772 15.6081 18.8186C15.6081 19.0119 15.627 19.301 15.6661 19.4727C15.7617 19.1465 16.0707 19.0119 16.4546 19.0119C17.2821 19.0119 18.2833 19.6461 18.9371 20.5124C18.1865 20.378 17.4549 20.2434 16.8393 20.2434C16.4546 20.2434 16.1077 20.2822 15.8194 20.4168C15.2612 20.666 14.5106 21.4935 14.5106 22.7449C14.5106 22.9372 14.5305 23.1485 14.5693 23.38C15.2423 21.8786 17.032 21.2052 18.1865 21.2052C18.4177 21.2052 18.5905 21.2245 18.7249 21.2434C18.1288 21.7818 17.9942 22.7259 17.9554 23.3602C17.9364 23.6683 17.8207 23.6881 17.6094 23.6881C17.6094 24.3223 18.1099 25.2662 18.1099 25.7468C18.1099 25.9193 18.0131 26.0739 17.9175 26.1126C17.9175 26.9594 18.764 27.5753 18.764 28.1139C18.764 28.2483 18.7249 28.3643 18.6672 28.4221C18.7252 28.7689 19.6562 29.3513 19.7768 29.6429C19.9246 29.9977 20.091 30.0582 20.1875 30.0582C20.5146 30.0582 21.0334 29.6722 21.0334 29.3262C21.0334 29.2108 20.9375 29.0758 20.8615 29.0181C20.4956 28.7491 20.3027 28.1717 20.1488 27.7869C20.0135 27.7869 19.8391 27.7298 19.7787 27.5038C19.6733 27.105 19.6681 26.363 19.5136 25.9193C19.2632 25.8626 19.1478 25.7658 19.1478 25.2476C19.1478 24.9963 19.3023 24.0151 19.3023 23.6683C19.1866 23.6683 19.033 23.5913 19.033 23.3598C19.033 22.7449 19.6492 22.2636 19.8217 21.4746C20.9195 22.2822 21.1879 23.1098 21.1879 23.8417C21.1879 24.2255 21.1299 24.5923 21.0532 24.9392C21.8618 24.5346 23.0741 23.9382 23.0741 22.7259C23.0741 22.0132 22.7473 21.2245 20.5726 20.9164C21.2456 20.666 22.0933 20.5322 22.8048 20.5322C24.0363 20.5322 24.748 20.9164 24.9016 21.7818C25.152 21.3979 25.3453 20.9542 25.3453 20.5512C25.3453 19.6073 24.5548 18.992 23.5547 18.992C22.3812 18.992 21.3421 19.6073 20.2257 20.3588C20.7271 19.32 21.0722 18.7038 21.6884 18.7038C21.7849 18.7038 21.8817 18.7236 21.9772 18.7425C21.7461 17.8961 20.8807 17.0677 20.4181 17.0677ZM52.8412 30.9419C53.8043 30.9419 54.5738 32.1932 54.5738 33.6559C54.5738 35.2132 53.8421 36.9073 52.5373 38.0609C52.5175 35.4645 49.3384 36.292 49.3384 34.4058C49.3384 33.5979 49.9168 33.0586 50.6105 33.0586C51.2274 33.0586 51.708 33.232 52.0549 33.5789C51.708 33.2522 51.5346 32.7893 51.5346 32.3477C51.5346 31.6149 51.9972 30.9419 52.8412 30.9419ZM38.5636 11.2561C38.4088 11.0057 37.835 10.8723 37.5657 10.8723C36.7174 10.8723 36.1403 11.4686 36.0246 12.0079C35.9479 11.8146 35.8893 11.5841 35.8893 11.3529C35.8893 10.5065 36.4673 9.46733 37.8741 9.46733C39.1026 9.46733 39.5832 10.1214 39.7576 10.1214C39.9493 10.1214 40.1423 9.92812 40.2968 9.92812C40.5084 9.92812 40.5084 10.2561 40.5084 10.4875C40.5084 11.2561 40.1625 12.5844 39.2952 13.0657C39.1407 12.738 38.8326 12.3728 38.3355 12.1426C38.2779 12.1196 38.2286 12.0797 38.1942 12.028C38.1598 11.9763 38.142 11.9154 38.1431 11.8534C38.1431 11.6421 38.3358 11.3718 38.5636 11.2561ZM35.6588 12.6611C36.1595 13.1426 36.6011 13.3542 37.1403 13.3542C37.3535 13.3542 37.6039 13.2971 37.7391 13.2971C37.912 13.2971 38.0274 13.3728 38.0274 13.5078C38.0274 13.7197 37.835 14.066 37.6039 14.259C37.835 14.3549 38.0854 14.394 38.3554 14.394C39.4485 14.394 40.7005 13.6999 40.7005 11.9691C40.932 12.2763 41.0675 12.9121 41.0675 13.2003C41.0675 15.2981 39.5264 16.1058 38.1053 16.1058C37.18 16.1058 36.7174 15.7977 36.6011 15.7977C36.2368 15.7977 36.256 16.5296 36.0056 16.5104C35.5623 16.4337 35.1592 15.4517 35.1592 14.4126C35.1592 13.7967 35.3128 13.1423 35.6588 12.6611ZM19.1866 0.422664C19.1866 0.306934 18.6095 0.191509 17.8207 0.191509C16.5703 0.191509 16.7428 1.23125 15.7815 1.23125C14.7806 1.23125 15.0301 0.152423 13.7601 0.152423C12.99 0.152423 12.2791 0.288001 12.2791 0.460833C12.2791 0.691989 13.1833 0.596107 13.1833 1.23125C13.1833 1.90426 11.24 2.09755 11.24 2.50153C11.24 2.63528 11.3927 2.69299 11.585 2.69299C12.0089 2.69299 12.6822 2.50123 13.1637 2.50123C13.4337 2.50123 13.6837 2.55833 13.6837 2.80872C13.6837 3.28996 12.644 4.15657 12.644 4.54132C12.644 4.65705 12.7399 4.69583 12.8364 4.69583C13.2211 4.69583 13.8755 3.7138 14.4914 3.7138C15.5113 3.7138 14.8386 5.88825 15.3959 5.88825C15.9739 5.88825 15.7238 3.75166 16.5504 3.75166C17.2253 3.75166 17.7248 5.23326 18.1865 5.23326C18.3023 5.23326 18.3988 5.13768 18.3988 5.0021C18.3988 4.59903 17.8207 3.7706 17.8207 3.23225C17.8207 2.90522 18.0519 2.7507 18.36 2.7507C18.8018 2.7507 19.3991 3.02003 19.7249 3.02003C19.841 3.02003 19.9564 2.98216 19.9564 2.8475C19.9564 2.3858 18.2442 1.88532 18.2442 1.28896C18.2442 0.691989 19.1866 0.691989 19.1866 0.422664ZM23.7092 2.3858C23.7092 2.73177 24.9215 3.48264 25.48 3.48264C25.8061 3.48264 25.9026 3.03988 25.9026 2.57726C25.9026 2.00075 25.6534 1.98182 25.152 1.98182C24.5178 1.98182 23.7092 2.15526 23.7092 2.3858ZM25.7111 6.19543C25.7111 5.04119 22.5883 2.944 22.5547 2.03953C22.5513 1.95708 22.5962 1.87464 22.6658 1.80074C23.2011 1.23736 25.422 0.825735 25.422 0.345103C25.422 0.0956267 24.9597 0.0956267 24.7282 0.0956267C22.9394 0.0956267 20.3222 0.749701 20.3222 1.38484C20.3222 2.03983 22.6695 3.63685 22.6695 4.42559C22.6695 4.63781 22.5348 4.71476 22.3226 4.71476C21.6691 4.71476 20.2446 3.92511 19.5713 3.92511C19.2635 3.92511 19.1478 4.13672 19.1478 4.44452C19.1478 5.36883 20.2446 7.11944 20.2446 7.63855C20.2446 7.69626 20.2257 7.77291 20.1488 7.77291C19.8019 7.77291 18.1676 5.84947 17.5896 5.84947C17.378 5.84947 17.359 6.13772 17.359 6.56125V7.21563C17.359 7.6584 17.3392 7.92711 17.1288 7.92711C16.628 7.92711 16.3959 6.52247 15.9165 6.52247C15.4157 6.52247 15.3192 9.02426 14.8386 9.02426C14.2801 9.02426 14.7617 6.27238 14.2224 6.27238C13.626 6.27238 12.9521 8.10086 12.5286 8.10086C12.375 8.10086 12.3368 7.94635 12.3368 7.81169C12.3368 7.25441 12.6629 6.34995 12.6629 5.8116C12.6629 5.54136 12.5863 5.38777 12.3557 5.38777C11.7588 5.38777 10.4497 6.34995 9.95015 6.34995C9.8732 6.34995 9.77731 6.31116 9.77731 6.23421C9.77731 5.77282 11.8742 4.31016 11.8742 3.65609C11.8742 3.02003 8.98705 3.44448 8.98705 2.71253C8.98705 2.09755 11.0476 1.46149 11.0476 0.827262C11.0479 0.268153 8.60291 0.0186768 7.66089 0.0186768C6.52435 0.0186768 5.90997 0.152423 5.90997 0.480376C5.90997 0.981161 8.4884 1.13537 8.4884 1.57722C8.4884 2.00075 5.81348 3.13576 5.81348 3.78983C5.81348 4.36787 9.58402 3.82861 9.58402 4.42559C9.58402 5.07966 6.29472 7.90757 6.29472 8.85082C6.29472 9.06304 6.44923 9.15862 6.65962 9.15862C7.66089 9.15862 10.2573 7.25441 10.97 7.25441C11.2204 7.25441 11.24 7.5616 11.24 7.83062C11.24 8.33202 11.0665 9.1009 11.0665 9.6594C11.0665 10.1022 11.1826 10.41 11.5664 10.41C12.2791 10.41 12.9332 9.1977 13.4138 9.1977C14.0291 9.1977 13.6648 12.7572 14.5882 12.7572C15.3769 12.7572 15.704 8.90853 16.2035 8.90853C16.7049 8.90853 17.1095 10.0252 17.5703 10.0252C18.1474 10.0252 17.8787 8.08193 18.4946 8.08193C19.1676 8.08193 21.0911 10.391 21.9583 10.391C22.227 10.391 22.3226 10.1788 22.3226 9.90857C22.3226 8.8896 20.8996 6.5811 20.8996 5.84947C20.8996 5.65709 20.9564 5.59907 21.168 5.59907C21.9195 5.59907 24.1132 6.6382 25.152 6.6382C25.4989 6.6382 25.7111 6.44583 25.7111 6.19543ZM8.14091 5.07966C8.14091 5.46441 6.67916 6.75302 6.16036 6.75302C5.96799 6.75302 5.90997 6.52247 5.90997 6.31116C5.90997 5.92703 6.0828 5.38777 6.29502 5.21432C6.5445 4.98317 7.12163 4.86927 7.56439 4.86927C7.8328 4.86927 8.14091 4.92515 8.14091 5.07966ZM22.285 7.06173C22.285 7.73504 24.6906 11.0253 25.1523 11.0253C25.538 11.0253 25.8253 10.3523 25.8253 9.77391C25.8253 9.62123 25.7875 9.46764 25.7114 9.3513C25.3646 8.87067 22.9208 6.94631 22.3815 6.94631C22.3229 6.94631 22.285 7.00432 22.285 7.06173ZM53.1875 1.23155C53.1875 1.49996 53.3991 1.71127 53.669 1.71127C53.7323 1.71196 53.795 1.70005 53.8536 1.67623C53.9122 1.6524 53.9655 1.61715 54.0103 1.57252C54.0551 1.5279 54.0906 1.47479 54.1147 1.4163C54.1388 1.35781 54.151 1.29511 54.1505 1.23186C54.1505 0.961619 53.9383 0.750006 53.669 0.750006C53.6056 0.749311 53.5426 0.761292 53.4839 0.785246C53.4252 0.8092 53.3718 0.844644 53.3269 0.889499C53.2821 0.934354 53.2466 0.987716 53.2227 1.04645C53.1987 1.10519 53.1868 1.16812 53.1875 1.23155ZM50.0514 5.48395C50.0514 4.11718 46.7829 3.7709 46.7829 3.4631C46.7829 3.21363 48.6089 2.78918 49.5513 2.76994C48.1085 0.923449 46.0513 1.11582 46.0513 0.788787C46.0513 0.595496 47.5915 0.210746 49.0135 0.210746C50.2063 0.210746 51.3226 0.480071 51.3226 1.38423C51.3226 1.88563 50.919 2.40504 50.919 3.17484C50.919 3.59868 51.1297 3.96358 51.6894 3.96358C52.2866 3.96358 52.4213 3.32844 52.4213 2.65452C52.4213 2.09724 52.3245 1.67341 52.3245 1.40408C52.3245 0.595496 52.8793 0.0574571 53.669 0.0574571C54.324 0.0574571 54.4776 0.345409 55.4407 0.345409C54.9204 0.653514 54.7286 1.21262 54.7286 1.48103C54.7286 2.28962 55.2489 2.84781 55.2489 4.50284C55.2489 7.54206 52.4015 8.61997 48.917 8.61997C47.9582 8.61997 46.9374 8.54302 45.9355 8.38942C45.7819 8.37049 45.7432 8.33141 45.7432 8.23583C45.7432 7.98483 47.1108 7.85016 47.1108 6.61958C47.1108 6.13803 46.9563 5.67633 46.9563 5.50289C46.9563 5.40731 47.0333 5.34929 47.1108 5.34929C47.4 5.34929 47.9781 6.46507 49.0523 6.46507C49.339 6.46507 50.0517 6.36857 50.0517 5.48395M53.3023 3.54066C53.3023 5.2528 52.0555 6.56186 49.8004 6.92707C50.0517 6.9457 50.2829 6.9457 50.5141 6.9457C53.1487 6.9457 54.1118 5.75328 54.1118 4.75323C54.1118 4.19474 53.8034 3.69395 53.3023 3.54066ZM51.9779 28.3445C52.2863 27.3826 52.672 26.7084 53.3029 25.6696C52.672 25.3434 50.9962 24.6497 50.9962 23.5137C50.9962 22.1867 52.6522 21.1478 52.9948 21.1478C53.1484 21.1478 53.1871 21.2822 53.1871 21.5326C53.1871 22.2248 52.8601 23.3412 52.8601 23.9376C52.8601 24.4762 53.207 24.9966 53.5151 24.9966C53.8418 24.9966 54.7472 23.842 54.7472 22.7064C54.7472 20.6654 52.956 20.0501 52.4021 20.0501C51.8814 20.0501 50.9385 20.8968 48.7241 20.8968C44.5883 20.8968 43.6441 16.7996 43.6441 15.0089C43.6441 14.9323 43.6631 14.9125 43.6823 14.9125C43.7788 14.9125 44.1834 15.4139 45.4925 15.4139C46.1664 15.4139 46.7826 15.2404 47.7655 15.2404C50.071 15.2404 51.0921 16.8383 52.5175 18.8766C53.3795 19.4152 55.441 20.2812 55.441 22.7253C55.441 24.8808 53.1484 26.0742 52.5944 28.3827C53.4763 28.2877 53.9966 26.7084 54.9008 26.7084C55.3634 26.7084 55.5756 27.0742 55.5756 27.6526C55.5756 28.4984 55.0941 29.7693 54.1692 30.558C54.189 30.4802 54.189 30.3846 54.189 30.2689C54.189 29.7305 53.9777 28.9616 53.3606 28.9616C52.4018 28.9616 52.0931 29.9998 51.5544 30.8652C50.9962 28.9036 50.2444 27.1322 48.8984 26.0543C47.535 24.9575 45.1844 25.5538 45.1844 23.5528C45.1844 23.0136 45.5312 22.2447 45.5312 21.6285C45.5312 21.4172 45.4925 21.2245 45.377 21.0703C47.2263 21.7641 46.571 22.9943 47.7075 24.2646C48.4159 25.0732 50.3794 25.843 51.5165 29.172C51.5349 29.0755 51.5544 28.826 51.5544 28.6526C51.5544 25.8042 47.7845 23.0136 47.4574 21.859C49.6474 22.1094 50.0322 22.6484 51.0729 25.5349C51.2845 26.1322 51.9779 27.6138 51.9779 28.3445ZM51.4775 19.0113C51.4775 18.6073 50.456 18.5694 50.3602 17.4338C50.3403 17.2603 50.2835 16.9532 50.0713 16.9532C49.7244 16.9532 49.9934 18.0112 49.6087 18.0112C48.7241 18.0112 48.4361 16.2792 48.1081 16.2792C48.0303 16.2792 47.939 16.3372 47.939 16.5684C47.939 16.7797 47.9778 16.9153 47.9778 17.1639C47.9778 17.4149 47.9197 17.5874 47.6886 17.5874C47.1683 17.5874 46.7066 16.376 46.2632 16.376C46.1664 16.376 46.0708 16.4337 46.0708 16.5296C46.0708 16.7608 46.4556 17.1837 46.4556 17.3959C46.4556 17.8576 45.2042 17.6072 45.2042 17.9923C45.2042 18.1657 45.377 18.2225 45.6082 18.2225C46.0128 18.2225 46.6488 18.05 46.9759 18.05C47.1683 18.05 47.4574 18.0888 47.4574 18.3383C47.4574 18.6073 46.7643 18.9535 46.7643 19.2036C46.7643 19.3194 46.8803 19.3762 46.9759 19.3762C47.4962 19.3762 48.4163 18.4729 49.0709 18.4729C49.1857 18.4729 49.474 18.5306 49.474 18.7041C49.474 18.9535 48.8205 19.3954 48.8205 19.7612C48.8205 19.8577 48.8786 19.9734 48.9943 19.9734C49.3384 19.9734 49.801 19.069 50.456 19.069C50.707 19.069 51.0729 19.1658 51.2652 19.1658C51.42 19.1658 51.4778 19.069 51.4778 19.0113" fill="#0F0E9A"/>
<path d="M37.1408 7.4843C37.4498 7.4843 37.5075 8.23547 37.5661 8.67733C37.6043 8.90879 37.6431 8.92772 37.7399 8.92772C37.971 8.92772 38.3359 8.04218 38.5827 8.04218C38.9479 8.04218 39.9308 9.06208 41.5675 9.06208C43.895 9.06208 46.0902 7.42628 46.0902 4.54066C46.0902 1.75092 44.1252 0.114814 41.413 0.114814C40.1241 0.114814 39.179 0.749956 38.6785 0.749956C38.3747 0.768889 37.9121 0 37.6809 0C37.5854 0 37.4886 0.191459 37.4886 0.518496C37.4886 0.731024 37.4886 1.40403 37.2574 1.40403C36.7939 1.40403 35.0051 0.0769499 35.0051 0.557582C35.0051 1.00035 36.1978 2.34697 36.1978 2.69325C36.1978 3.04013 35.024 3.36717 35.024 3.59833C35.024 4.02124 36.2754 4.09789 36.2754 4.63745C36.2754 5.1758 34.9663 5.59933 34.9663 6.00423C34.9663 6.33035 36.2754 6.09981 36.2754 6.5038C36.2754 6.90778 35.3132 8.25471 35.3132 8.63855C35.3132 8.73534 35.3321 8.73534 35.4091 8.73534C35.774 8.73534 36.8708 7.4843 37.1408 7.4843ZM37.7008 4.32935C37.7008 4.11774 36.9484 3.71406 36.9484 3.48259C36.9484 3.44473 36.9863 3.42488 37.0452 3.42488C37.2574 3.42488 37.6232 3.50244 37.9124 3.50244C38.1634 3.50244 38.2013 2.42453 38.3903 2.42453C38.524 2.42453 38.7555 3.44473 38.9686 3.44473C39.2178 3.44473 39.6795 3.15556 39.8728 3.15556C39.9116 3.15556 39.9497 3.1748 39.9497 3.21358C39.9497 3.34793 39.4682 3.86673 39.4682 4.02124C39.4682 4.19469 40.5467 4.40599 40.5467 4.5605C40.5467 4.75288 39.4493 4.73395 39.4493 4.90739C39.4493 5.04114 39.8539 5.5804 39.8539 5.75323C39.8539 5.79201 39.834 5.81186 39.7958 5.81186C39.6416 5.81186 39.0447 5.54162 38.8709 5.54162C38.6596 5.54162 38.317 6.33035 38.1436 6.33035C38.0855 6.33035 38.0477 6.2534 38.0477 6.15691L38.008 5.38741C38.008 5.31046 37.971 5.23351 37.8742 5.23351C37.6431 5.23351 37.1994 5.21366 37.0641 5.21366C36.9673 5.21366 36.9295 5.19473 36.9295 5.15687C36.9295 5.00236 37.7008 4.46371 37.7008 4.32935ZM41.4524 7.98508C40.1046 7.98508 39.2181 7.31208 39.2181 6.96519C39.2181 6.79175 39.3338 6.67693 39.4883 6.67693C39.9119 6.67693 40.8362 7.3304 41.1443 7.3304C41.2209 7.3304 41.2787 7.29223 41.2787 7.1765C41.2787 6.82961 40.9519 6.2531 40.9519 5.96515C40.9519 5.8882 41.0096 5.83048 41.1254 5.83048C41.6445 5.83048 42.4161 6.04271 42.821 6.04271C42.9548 6.04271 42.9926 5.96515 42.9926 5.8882C42.9926 5.46467 41.7413 4.63715 41.7413 4.38676C41.7413 4.1556 43.2971 3.80872 43.2971 3.44443C43.2971 3.05876 41.1822 3.32808 41.1822 2.96288C41.1822 2.69294 41.5868 2.23124 41.5868 2.01963C41.5868 1.92314 41.5101 1.88527 41.3755 1.88527C41.202 1.88527 40.278 2.25109 39.8929 2.25109C39.6997 2.25109 39.4685 2.21231 39.4685 1.94299C39.4685 1.4993 40.22 1.01867 41.3944 1.01867C43.2971 1.01867 44.4345 2.32774 44.4345 4.52111C44.4345 7.29223 42.4921 7.98508 41.4524 7.98508ZM28.4241 41.2757C28.4241 41.4491 28.366 41.6424 28.2118 41.8342C28.0011 41.4494 27.4039 41.2558 27.1339 41.2571C25.1528 41.2571 25.9024 44.1244 23.7857 44.1244C22.9014 44.1244 22.8238 44.0086 22.4965 44.0086C22.3621 44.0086 22.2852 44.0667 22.2852 44.1821C22.2852 44.6835 22.9969 45.9141 24.9793 45.9141C26.9617 45.9141 28.8665 44.7024 28.8665 43.1994C28.8665 42.95 28.8088 42.6825 28.6931 42.4122C28.77 42.2965 28.9633 42.2199 29.1368 42.2199C29.4439 42.2199 29.6174 42.5667 29.9056 42.5667C30.2144 42.5667 30.4449 42.3356 30.4449 42.0275C30.4449 41.7771 30.3105 41.6036 30.0791 41.487C30.2336 41.3725 30.3484 41.1792 30.3484 40.9679C30.3484 40.6406 30.1179 40.3343 29.7322 40.3343C29.5588 40.3343 29.4439 40.3923 29.3093 40.5251C29.2714 40.1801 29.079 39.8527 28.7129 39.8527C28.4241 39.8527 28.2118 40.0644 28.2118 40.3923C28.2118 40.6977 28.4241 40.9487 28.4241 41.2757Z" fill="#0F0E9A"/>
<path d="M23.2477 42.0079C22.6705 42.0079 21.8039 41.3917 21.8039 41.0448C21.8039 40.7557 22.0742 40.6015 22.2846 40.6015C22.7661 40.6015 23.6315 41.1984 23.6315 41.6989C23.6315 41.8345 23.535 42.0079 23.2477 42.0079ZM17.8786 37.6975C19.4179 38.0807 20.1877 38.9083 20.3413 39.8912C20.4958 40.8326 20.6882 41.603 21.0534 41.9881C21.5346 42.5283 22.4769 43.0071 23.3054 43.0071C23.9985 43.0071 24.5549 42.7784 24.5549 42.1426C24.5549 41.4494 23.6126 39.8912 22.2269 39.8912C22.0931 39.8912 21.9197 39.9111 21.7273 39.9111C21.5539 39.9111 21.3035 39.8723 21.149 39.7376C20.8418 39.4674 20.7459 38.024 20.1678 37.1583C19.5336 36.1964 18.8408 35.9261 17.8984 35.9261C17.2254 35.9261 16.4736 36.292 16.4736 36.8312C16.4736 37.1583 16.6471 37.3888 17.8786 37.6975Z" fill="#0F0E9A"/>
<path d="M27.5395 35.3487C27.5395 34.483 25.7489 34.4641 25.7489 33.155C25.7489 32.8271 25.9611 32.2695 26.3849 31.6725C26.5584 32.6735 26.9621 33.1932 27.8287 33.5208C29.5405 34.155 29.772 35.1172 29.772 36.138C29.772 37.8709 28.5597 40.0255 25.4426 40.0255C22.9402 40.0255 21.1505 37.7934 21.1505 35.9078C21.1505 35.3875 21.2849 34.81 21.6122 34.81C21.9011 34.81 21.9979 35.0406 22.2275 35.2717C23.0947 36.138 24.0367 36.3686 25.4038 36.3686C26.635 36.3686 27.5395 35.869 27.5395 35.3487ZM27.6161 36.7344C26.9563 37.0367 26.693 36.9848 26.693 37.6596C26.693 37.9088 26.635 38.2349 26.635 38.4084C26.635 38.6389 26.6738 38.7745 26.9422 38.7745C27.636 38.7745 28.7328 37.6007 28.7328 36.5997C28.7328 36.3298 28.5783 36.2159 28.4049 36.2159C28.2504 36.2159 28.0788 36.5231 27.6161 36.7344ZM21.4776 27.017C21.4776 25.7849 24.4029 25.1308 24.4029 23.6105C24.4029 23.3601 24.307 22.9182 24.1335 22.5906C25.1534 23.1488 25.9034 24.0929 25.9034 24.8615C25.9034 26.1898 24.5183 26.8048 24.5183 27.6332C24.5183 28.5954 25.9999 28.749 25.9999 29.9423C25.9999 30.9225 24.5943 32.0585 24.5943 33.3288C24.5943 34.3096 25.2881 35.1172 26.3462 35.2519C25.9999 35.3295 25.6921 35.3875 25.365 35.3875C23.4208 35.3875 21.4198 33.7911 21.4198 31.885C21.4198 30.9415 21.8244 30.1158 22.4397 29.5185C22.979 29.9805 23.5176 30.2883 23.8633 30.2883C24.1717 30.2883 24.307 30.1347 24.307 29.9036C24.307 29.1909 21.4776 28.5377 21.4776 27.017ZM10.3158 36.5228C10.3971 37.1802 11.0096 37.678 11.7016 37.6013C11.951 37.5738 12.1831 37.5045 12.3376 37.4089C12.4912 38.0242 13.0082 38.4203 13.7062 38.3287C14.4146 38.2365 14.8971 37.6783 14.8202 36.9652C14.8064 36.8123 14.7674 36.6627 14.7047 36.5225C14.7047 36.5225 14.7988 36.5133 14.8696 36.4993C15.564 36.368 16.0327 35.8107 15.975 35.1368C15.8981 34.4448 15.2767 33.9306 14.6287 34.01C14.3783 34.0408 14.1462 34.1358 13.9917 34.2714C13.8183 33.6949 13.2757 33.1926 12.5343 33.3159C11.8655 33.4265 11.4228 33.9944 11.4902 34.7139C11.5006 34.8305 11.5281 34.9642 11.5861 35.098L11.3953 35.1264C10.8334 35.2101 10.2242 35.7753 10.3158 36.5228ZM13.9117 35.7658C13.9303 35.9565 13.8732 36.1469 13.7529 36.2961C13.6325 36.4452 13.4585 36.5412 13.2681 36.5633C13.0778 36.5855 12.8863 36.5321 12.7349 36.4146C12.5835 36.2971 12.4843 36.1249 12.4585 35.935C12.4474 35.8396 12.4552 35.7429 12.4815 35.6505C12.5077 35.5581 12.5519 35.4717 12.6115 35.3964C12.6712 35.3211 12.745 35.2582 12.8289 35.2115C12.9128 35.1647 13.0051 35.1349 13.1005 35.1238C13.196 35.1127 13.2926 35.1205 13.385 35.1467C13.4774 35.173 13.5638 35.2172 13.6391 35.2768C13.7144 35.3364 13.7773 35.4103 13.824 35.4942C13.8708 35.5781 13.9006 35.6704 13.9117 35.7658Z" fill="#0F0E9A"/>
</g>
<defs>
<clipPath id="clip0_154_390">
<rect width="63.28" height="70" fill="white"/>
</clipPath>
</defs>
</svg>
